<svg id="Capa_1" data-name="Capa 1" xmlns="http://www.w3.org/2000/svg" viewBox="0 0 426.97 65.45"><path d="M764.91,399.73c0,5.49-.28,11,.09,16.46.32,4.74-1.5,6.22-6.06,6-4.11-.16-7.16-.08-6.93-5.82.44-10.57.07-21.16.14-31.75,0-5.4-2.06-10.37-6.85-11.89a19.07,19.07,0,0,0-13.1,1.14c-2.68,1.33-5,6.06-5.14,9.4-.63,11.14-.49,22.34-.14,33.5.18,5.51-2.95,5.27-6.71,5.38-4.06.13-6.74-.37-6.59-5.57.3-10.38.17-20.77.06-31.16-.07-7.06-3.71-12.06-9.71-13.8-7.56-2.19-14.37,1.59-14.94,9.44-.83,11.31-.87,22.71-.63,34,.12,5.48-1.61,7.17-7,7.14s-7.44-1.5-7-7.07c.93-12.83.33-25.88,2.39-38.51,2.62-16.09,25.85-23.57,38.47-13,3.42,2.85,5.55,3.46,9.3.2,8.06-7,17.7-6.33,26.5-2.13,8.31,4,13.6,11.09,13.77,20.94.1,5.68,0,11.37,0,17.05Z" transform="translate(-456.03 -358.59)"/><path d="M501.89,375.38c-10.95-8-24.94-5.56-31.38,5.13a20.83,20.83,0,0,0,8.35,29.19c11.28,5.83,23.58,1,29.26-10.74,1.74-3.59,5.3-6.5,8.54-9.07,2.42-1.91,4.38-.8,4.45,2.64.44,19.27-20.46,35.22-39.3,30.49-19.07-4.78-29.79-21.63-24.38-41.22,4.73-17.17,22.27-25.81,38.13-22.26,9,2,15.89,7.15,21,14.78,2.12,3.17,2.23,5.24-1.79,7.37-9.13,4.83-17.94,10.27-26.9,15.42-1.43.82-3,1.44-4.59,2.19-1.79-7.11.3-12.81,5.58-16.07C493.12,380.61,497.42,378.07,501.89,375.38Z" transform="translate(-456.03 -358.59)"/><path d="M666.45,391c0,17.75-14.5,32.56-32.12,32.72-19,.17-33.37-13.82-33.39-32.43a32.6,32.6,0,0,1,32.31-32.51C651.48,358.65,666.42,373.14,666.45,391Zm-32.53-19.71c-11.43,0-20.16,8.5-20.2,19.76a20.05,20.05,0,0,0,20.37,20.37c10.65-.06,19.48-9,19.61-19.95A19.64,19.64,0,0,0,633.92,371.26Z" transform="translate(-456.03 -358.59)"/><path d="M596.46,401.66c-5.07,15.33-21.45,24.33-37,21.7-17.69-3-30.65-17.23-29.27-35,1.15-14.81,14.23-28.09,30.56-29.6,16.59-1.53,31.69,7.79,35.14,21.69-6.81,2.73-11.24,1.86-15.9-3.14-6.63-7.1-19.28-8.4-27.53-2.84-8.84,6-12,15.81-7.93,24.53A21.59,21.59,0,0,0,570,410.72c3.46-1,7.64-2.48,9.61-5.14C584.33,399.16,590.07,401.53,596.46,401.66Z" transform="translate(-456.03 -358.59)"/><path d="M787.07,361.33c0,12-.11,23.28,0,34.59.1,7.43,4.06,12.57,11,14.89,9.15,3.06,19.79-4.15,20.09-13.81a198.57,198.57,0,0,0,0-20.56c-.46-6.33,1.39-10.61,7.58-12.72,1.39-.48,2.61-1.48,5.5-3.16-.6,15.69,3,30.84-1.77,44.54-7.73,22.21-36.79,25.56-50.24,6.49-3.23-4.59-4.19-11.16-5-17s-.2-12.12-.2-18.19C774,366.76,775.59,364.77,787.07,361.33Z" transform="translate(-456.03 -358.59)"/><path d="M873.2,379.92a45.19,45.19,0,0,0-5.37-5.09c-2.09-1.46-4.6-3.16-6.93-3.16-1.66,0-4.74,2.71-4.66,4.06a8.73,8.73,0,0,0,3.78,6.14c4.34,2.5,9.52,3.56,13.76,6.19,8.92,5.52,11.45,14.81,7.23,23.86-4.11,8.79-15.61,13.8-24.67,11.28-7.7-2.15-12.46-7.26-15.11-14.27-.81-2.13-.25-6.31,1.27-7.45,3.07-2.33,9.17.09,10.76,2.82,1.34,2.3,2.92,4.87,5.09,6.16,3.87,2.3,7.87,1.21,10.1-2.73s1.24-7.8-2.93-10a52.54,52.54,0,0,0-9.78-3.75c-7.41-2.15-12-7-12.65-13.66-.85-9.16,2.36-15.65,9.46-19.11,10.38-5.07,21-2.12,26.79,7.95,1.3,2.28,1.38,5.63.95,8.32C880.14,378.4,876.7,378.79,873.2,379.92Z" transform="translate(-456.03 -358.59)"/></svg>